<svg width="21" height="22" viewBox="0 0 21 22" fill="none" xmlns="http://www.w3.org/2000/svg">
<circle cx="10.1569" cy="11.0588" r="10.1569" fill="white"/>
<g clip-path="url(#clip0_45_66)">
<path fill-rule="evenodd" clip-rule="evenodd" d="M12.6122 14.6143C12.7735 14.0244 12.4603 12.8115 12.4603 12.8115C12.4603 12.8115 12.2332 13.7996 11.8783 14.1648C11.5755 14.4763 11.2045 14.6923 10.6724 14.7491C11.1074 14.5378 11.4066 14.0972 11.4066 13.588C11.4066 12.8732 10.8171 12.2937 10.0899 12.2937C9.36278 12.2937 8.77327 12.8732 8.77327 13.588C8.77327 13.7832 8.81727 13.9684 8.896 14.1344C8.44119 13.772 8.36967 13.1911 8.36967 13.1911C8.36967 13.1911 7.86181 15.2997 9.26119 16.2915C10.6606 17.2834 13.4019 16.4308 13.4019 16.4308C13.4019 16.4308 9.47888 19.1911 6.57191 16.1869C4.0678 13.599 5.91834 10.1919 5.91834 10.1919C5.91834 10.1919 5.83842 10.508 5.83842 10.8749C5.83842 11.2418 6.03734 11.5209 6.03734 11.5209C6.03734 11.5209 6.63073 10.2702 7.09253 9.76151C7.5296 9.28012 8.07748 8.88968 8.55071 8.55245C8.91498 8.29285 9.23502 8.06478 9.42616 7.85102C10.479 6.67383 9.83343 4.52962 9.83343 4.52962C9.83343 4.52962 11.0202 5.57585 11.3515 6.92708C11.4778 7.44214 11.3966 8.02818 11.3239 8.55224C11.206 9.40301 11.1107 10.0905 11.9627 10.0458C13.3395 9.97374 12.1431 7.85102 12.1431 7.85102C12.1431 7.85102 15.2663 9.49256 15.033 12.3635C14.7996 15.2345 11.6191 15.8871 11.6191 15.8871C11.6191 15.8871 12.4508 15.2043 12.6122 14.6143Z" fill="#FF9D55"/>
</g>
<defs>
<clipPath id="clip0_45_66">
<rect width="13.0588" height="13.0588" fill="white" transform="translate(3.62756 4.52951)"/>
</clipPath>
</defs>
</svg>
