<svg width="56" height="56" viewBox="0 0 56 56" fill="none" xmlns="http://www.w3.org/2000/svg">
<path d="M36.8398 20.4959C36.329 19.9849 35.7226 19.5796 35.0551 19.303C34.3876 19.0264 33.6722 18.8841 32.9498 18.8841C32.2273 18.8841 31.5119 19.0264 30.8444 19.303C30.1769 19.5796 29.5705 19.9849 29.0598 20.4959L27.9998 21.5559L26.9398 20.4959C25.9081 19.4642 24.5088 18.8846 23.0498 18.8846C21.5907 18.8846 20.1914 19.4642 19.1598 20.4959C18.1281 21.5276 17.5485 22.9269 17.5485 24.3859C17.5485 25.845 18.1281 27.2442 19.1598 28.2759L20.2198 29.3359L27.9998 37.1159L35.7798 29.3359L36.8398 28.2759C37.3507 27.7652 37.7561 27.1587 38.0327 26.4913C38.3092 25.8238 38.4516 25.1084 38.4516 24.3859C38.4516 23.6634 38.3092 22.948 38.0327 22.2806C37.7561 21.6131 37.3507 21.0067 36.8398 20.4959V20.4959Z" stroke="#808080" stroke-width="1.5" stroke-linecap="round" stroke-linejoin="round"/>
</svg>
