<svg width="21" height="22" viewBox="0 0 21 22" fill="none" xmlns="http://www.w3.org/2000/svg">
<circle cx="10.1569" cy="11.0588" r="10.1569" fill="white"/>
<g clip-path="url(#clip0_40_171)">
<path fill-rule="evenodd" clip-rule="evenodd" d="M6.11207 15.7684C6.06724 15.7263 6.02291 15.6833 5.9791 15.6395C3.66615 13.3265 3.66615 9.57649 5.9791 7.26354C8.29205 4.95058 15.662 4.79585 15.662 4.79585C15.662 4.79585 16.668 13.3265 14.3551 15.6395C12.3008 17.6937 9.11312 17.9235 6.8053 16.3289L8.66486 14.0469L11.6375 13.4051L9.21096 13.1625L10.7531 11.5924L12.5085 11.2078L11.1204 10.7967L12.5085 8.29272L10.5341 10.5073L9.77165 9.43141L10.04 11.2078L8.66486 12.7581L8.0274 10.7967V13.4051L6.11207 15.7684Z" fill="#63BC5A"/>
</g>
<defs>
<clipPath id="clip0_40_171">
<rect width="13.0588" height="13.0588" fill="white" transform="translate(3.62756 4.52952)"/>
</clipPath>
</defs>
</svg>
